solid OpenSCAD_Model
  facet normal -1 0 0
    outer loop
      vertex 0 0 0
      vertex 0 0 30
      vertex 0 3.75 8
    endloop
  endfacet
  facet normal -1 0 0
    outer loop
      vertex 0 0 0
      vertex 0 3.75 8
      vertex 0 11 0
    endloop
  endfacet
  facet normal -1 0 0
    outer loop
      vertex 0 7.25 30
      vertex 0 11 0
      vertex 0 7.25 8
    endloop
  endfacet
  facet normal -1 0 0
    outer loop
      vertex 0 3.75 8
      vertex 0 7.25 8
      vertex 0 11 0
    endloop
  endfacet
  facet normal -1 0 0
    outer loop
      vertex 0 11 0
      vertex 0 7.25 30
      vertex 0 11 30
    endloop
  endfacet
  facet normal -1 0 0
    outer loop
      vertex 0 3.75 8
      vertex 0 0 30
      vertex 0 3.75 30
    endloop
  endfacet
  facet normal 0 -1 0
    outer loop
      vertex 1.5 0 7
      vertex 0 0 0
      vertex 11 0 0
    endloop
  endfacet
  facet normal 0 -1 0
    outer loop
      vertex 1.5 0 7
      vertex 1.5 0 30
      vertex 0 0 30
    endloop
  endfacet
  facet normal 0 -1 0
    outer loop
      vertex 0 0 30
      vertex 0 0 0
      vertex 1.5 0 7
    endloop
  endfacet
  facet normal 0 -1 0
    outer loop
      vertex 11 0 7
      vertex 1.5 0 7
      vertex 11 0 0
    endloop
  endfacet
  facet normal 0 0 -1
    outer loop
      vertex 10.5 1.75 0
      vertex 11 0 0
      vertex 4 1.75 0
    endloop
  endfacet
  facet normal 0 0 -1
    outer loop
      vertex 10.5 9.25 0
      vertex 0 11 0
      vertex 11 11 0
    endloop
  endfacet
  facet normal 0 0 -1
    outer loop
      vertex 4 1.75 0
      vertex 0 11 0
      vertex 4 9.25 0
    endloop
  endfacet
  facet normal 0 0 -1
    outer loop
      vertex 4 9.25 0
      vertex 0 11 0
      vertex 10.5 9.25 0
    endloop
  endfacet
  facet normal 0 0 -1
    outer loop
      vertex 11 8.75 0
      vertex 10.5 9.25 0
      vertex 11 11 0
    endloop
  endfacet
  facet normal 0 0 -1
    outer loop
      vertex 0 0 0
      vertex 0 11 0
      vertex 4 1.75 0
    endloop
  endfacet
  facet normal 0 0 -1
    outer loop
      vertex 0 0 0
      vertex 4 1.75 0
      vertex 11 0 0
    endloop
  endfacet
  facet normal 0 0 -1
    outer loop
      vertex 11 2.25 0
      vertex 11 0 0
      vertex 10.5 2.25 0
    endloop
  endfacet
  facet normal 0 0 -1
    outer loop
      vertex 11 0 0
      vertex 10.5 1.75 0
      vertex 10.5 2.25 0
    endloop
  endfacet
  facet normal 0 0 -1
    outer loop
      vertex 10.5 9.25 0
      vertex 11 8.75 0
      vertex 10.5 8.75 0
    endloop
  endfacet
  facet normal 0 1 0
    outer loop
      vertex 11 11 7
      vertex 11 11 0
      vertex 1.5 11 7
    endloop
  endfacet
  facet normal 0 1 0
    outer loop
      vertex 0 11 0
      vertex 0 11 30
      vertex 1.5 11 7
    endloop
  endfacet
  facet normal 0 1 0
    outer loop
      vertex 0 11 0
      vertex 1.5 11 7
      vertex 11 11 0
    endloop
  endfacet
  facet normal 0 1 0
    outer loop
      vertex 1.5 11 7
      vertex 0 11 30
      vertex 1.5 11 30
    endloop
  endfacet
  facet normal 0 0 1
    outer loop
      vertex 0 11 30
      vertex 0 7.25 30
      vertex 1.5 7.25 30
    endloop
  endfacet
  facet normal 0 0 1
    outer loop
      vertex 1.5 11 30
      vertex 0 11 30
      vertex 1.5 7.25 30
    endloop
  endfacet
  facet normal 0 -1 0
    outer loop
      vertex 1.5 7.25 8
      vertex 1.5 7.25 30
      vertex 0 7.25 30
    endloop
  endfacet
  facet normal 0 -1 0
    outer loop
      vertex 0 7.25 8
      vertex 1.5 7.25 8
      vertex 0 7.25 30
    endloop
  endfacet
  facet normal 0 0 1
    outer loop
      vertex 1.5 3.75 8
      vertex 1.5 7.25 8
      vertex 0 7.25 8
    endloop
  endfacet
  facet normal 0 0 1
    outer loop
      vertex 0 3.75 8
      vertex 1.5 3.75 8
      vertex 0 7.25 8
    endloop
  endfacet
  facet normal 0 1 0
    outer loop
      vertex 1.5 3.75 30
      vertex 1.5 3.75 8
      vertex 0 3.75 30
    endloop
  endfacet
  facet normal 0 1 0
    outer loop
      vertex 0 3.75 30
      vertex 1.5 3.75 8
      vertex 0 3.75 8
    endloop
  endfacet
  facet normal 0 0 1
    outer loop
      vertex 0 3.75 30
      vertex 0 0 30
      vertex 1.5 0 30
    endloop
  endfacet
  facet normal 0 0 1
    outer loop
      vertex 1.5 3.75 30
      vertex 0 3.75 30
      vertex 1.5 0 30
    endloop
  endfacet
  facet normal 1 0 0
    outer loop
      vertex 1.5 7.25 8
      vertex 1.5 0 7
      vertex 1.5 11 7
    endloop
  endfacet
  facet normal 1 0 0
    outer loop
      vertex 1.5 3.75 8
      vertex 1.5 3.75 30
      vertex 1.5 0 30
    endloop
  endfacet
  facet normal 1 0 0
    outer loop
      vertex 1.5 11 30
      vertex 1.5 7.25 30
      vertex 1.5 11 7
    endloop
  endfacet
  facet normal 1 0 0
    outer loop
      vertex 1.5 3.75 8
      vertex 1.5 0 7
      vertex 1.5 7.25 8
    endloop
  endfacet
  facet normal 1 0 0
    outer loop
      vertex 1.5 0 30
      vertex 1.5 0 7
      vertex 1.5 3.75 8
    endloop
  endfacet
  facet normal 1 0 0
    outer loop
      vertex 1.5 7.25 30
      vertex 1.5 7.25 8
      vertex 1.5 11 7
    endloop
  endfacet
  facet normal 0 0 1
    outer loop
      vertex 3 1.75 7
      vertex 1.5 0 7
      vertex 11 0 7
    endloop
  endfacet
  facet normal 0 0 1
    outer loop
      vertex 10.5 8.75 7
      vertex 11 8.75 7
      vertex 10.5 9.25 7
    endloop
  endfacet
  facet normal 0 0 1
    outer loop
      vertex 11 2.25 7
      vertex 10.5 2.25 7
      vertex 11 0 7
    endloop
  endfacet
  facet normal 0 0 1
    outer loop
      vertex 10.5 2.25 7
      vertex 10.5 1.75 7
      vertex 11 0 7
    endloop
  endfacet
  facet normal 0 0 1
    outer loop
      vertex 1.5 11 7
      vertex 1.5 0 7
      vertex 3 1.75 7
    endloop
  endfacet
  facet normal 0 0 1
    outer loop
      vertex 3.5 6 7
      vertex 3 6 7
      vertex 3.5 5 7
    endloop
  endfacet
  facet normal 0 0 1
    outer loop
      vertex 1.5 11 7
      vertex 3 1.75 7
      vertex 3 5 7
    endloop
  endfacet
  facet normal 0 0 1
    outer loop
      vertex 3 6 7
      vertex 3 5 7
      vertex 3.5 5 7
    endloop
  endfacet
  facet normal 0 0 1
    outer loop
      vertex 3 6 7
      vertex 3 9.25 7
      vertex 1.5 11 7
    endloop
  endfacet
  facet normal 0 0 1
    outer loop
      vertex 1.5 11 7
      vertex 3 5 7
      vertex 3 6 7
    endloop
  endfacet
  facet normal 0 0 1
    outer loop
      vertex 3 9.25 7
      vertex 10.5 9.25 7
      vertex 1.5 11 7
    endloop
  endfacet
  facet normal 0 0 1
    outer loop
      vertex 11 11 7
      vertex 1.5 11 7
      vertex 10.5 9.25 7
    endloop
  endfacet
  facet normal 0 0 1
    outer loop
      vertex 11 11 7
      vertex 10.5 9.25 7
      vertex 11 8.75 7
    endloop
  endfacet
  facet normal 0 0 1
    outer loop
      vertex 10.5 1.75 7
      vertex 3 1.75 7
      vertex 11 0 7
    endloop
  endfacet
  facet normal 1 0 0
    outer loop
      vertex 11 0 7
      vertex 11 0 0
      vertex 11 2.25 0
    endloop
  endfacet
  facet normal 1 0 0
    outer loop
      vertex 11 2.25 7
      vertex 11 0 7
      vertex 11 2.25 0
    endloop
  endfacet
  facet normal 0 1 0
    outer loop
      vertex 11 2.25 7
      vertex 11 2.25 0
      vertex 10.5 2.25 7
    endloop
  endfacet
  facet normal 0 1 0
    outer loop
      vertex 10.5 2.25 7
      vertex 11 2.25 0
      vertex 10.5 2.25 0
    endloop
  endfacet
  facet normal -1 0 0
    outer loop
      vertex 10.5 2.25 7
      vertex 10.5 2.25 0
      vertex 10.5 1.75 7
    endloop
  endfacet
  facet normal -1 0 0
    outer loop
      vertex 10.5 1.75 7
      vertex 10.5 2.25 0
      vertex 10.5 1.75 0
    endloop
  endfacet
  facet normal 0 1 0
    outer loop
      vertex 10.5 1.75 7
      vertex 10.5 1.75 0
      vertex 3 1.75 7
    endloop
  endfacet
  facet normal 0 1 0
    outer loop
      vertex 4 1.75 1
      vertex 10.5 1.75 0
      vertex 4 1.75 0
    endloop
  endfacet
  facet normal 0 1 0
    outer loop
      vertex 3 1.75 7
      vertex 10.5 1.75 0
      vertex 4 1.75 1
    endloop
  endfacet
  facet normal 0 1 0
    outer loop
      vertex 3 1.75 1
      vertex 3 1.75 7
      vertex 4 1.75 1
    endloop
  endfacet
  facet normal 1 0 0
    outer loop
      vertex 4 1.75 1
      vertex 4 1.75 0
      vertex 4 9.25 0
    endloop
  endfacet
  facet normal 1 0 0
    outer loop
      vertex 4 9.25 1
      vertex 4 1.75 1
      vertex 4 9.25 0
    endloop
  endfacet
  facet normal 0 -1 0
    outer loop
      vertex 4 9.25 1
      vertex 4 9.25 0
      vertex 10.5 9.25 0
    endloop
  endfacet
  facet normal 0 -1 0
    outer loop
      vertex 3 9.25 7
      vertex 4 9.25 1
      vertex 10.5 9.25 7
    endloop
  endfacet
  facet normal 0 -1 0
    outer loop
      vertex 10.5 9.25 7
      vertex 4 9.25 1
      vertex 10.5 9.25 0
    endloop
  endfacet
  facet normal 0 -1 0
    outer loop
      vertex 3 9.25 1
      vertex 4 9.25 1
      vertex 3 9.25 7
    endloop
  endfacet
  facet normal -1 0 0
    outer loop
      vertex 10.5 9.25 7
      vertex 10.5 9.25 0
      vertex 10.5 8.75 7
    endloop
  endfacet
  facet normal -1 0 0
    outer loop
      vertex 10.5 8.75 7
      vertex 10.5 9.25 0
      vertex 10.5 8.75 0
    endloop
  endfacet
  facet normal 0 -1 0
    outer loop
      vertex 11 8.75 0
      vertex 11 8.75 7
      vertex 10.5 8.75 7
    endloop
  endfacet
  facet normal 0 -1 0
    outer loop
      vertex 10.5 8.75 0
      vertex 11 8.75 0
      vertex 10.5 8.75 7
    endloop
  endfacet
  facet normal 1 0 0
    outer loop
      vertex 11 8.75 7
      vertex 11 8.75 0
      vertex 11 11 0
    endloop
  endfacet
  facet normal 1 0 0
    outer loop
      vertex 11 11 7
      vertex 11 8.75 7
      vertex 11 11 0
    endloop
  endfacet
  facet normal 1 0 0
    outer loop
      vertex 3 9.25 1
      vertex 3 9.25 7
      vertex 3 6 7
    endloop
  endfacet
  facet normal 1 0 0
    outer loop
      vertex 3 6 1
      vertex 3 9.25 1
      vertex 3 6 7
    endloop
  endfacet
  facet normal 0 1 0
    outer loop
      vertex 3 6 1
      vertex 3 6 7
      vertex 3.5 6 1
    endloop
  endfacet
  facet normal 0 1 0
    outer loop
      vertex 3.5 6 1
      vertex 3 6 7
      vertex 3.5 6 7
    endloop
  endfacet
  facet normal 1 0 0
    outer loop
      vertex 3.5 5 7
      vertex 3.5 5 1
      vertex 3.5 6 1
    endloop
  endfacet
  facet normal 1 0 0
    outer loop
      vertex 3.5 6 7
      vertex 3.5 5 7
      vertex 3.5 6 1
    endloop
  endfacet
  facet normal 0 -1 0
    outer loop
      vertex 3 5 7
      vertex 3 5 1
      vertex 3.5 5 1
    endloop
  endfacet
  facet normal 0 -1 0
    outer loop
      vertex 3.5 5 7
      vertex 3 5 7
      vertex 3.5 5 1
    endloop
  endfacet
  facet normal 1 0 0
    outer loop
      vertex 3 5 1
      vertex 3 5 7
      vertex 3 1.75 7
    endloop
  endfacet
  facet normal 1 0 0
    outer loop
      vertex 3 1.75 1
      vertex 3 5 1
      vertex 3 1.75 7
    endloop
  endfacet
  facet normal 0 0 1
    outer loop
      vertex 3 5 1
      vertex 3 1.75 1
      vertex 4 1.75 1
    endloop
  endfacet
  facet normal 0 0 1
    outer loop
      vertex 3.5 5 1
      vertex 3 5 1
      vertex 4 1.75 1
    endloop
  endfacet
  facet normal 0 0 1
    outer loop
      vertex 3 9.25 1
      vertex 3 6 1
      vertex 4 9.25 1
    endloop
  endfacet
  facet normal 0 0 1
    outer loop
      vertex 4 9.25 1
      vertex 3.5 6 1
      vertex 4 1.75 1
    endloop
  endfacet
  facet normal 0 0 1
    outer loop
      vertex 3.5 6 1
      vertex 3.5 5 1
      vertex 4 1.75 1
    endloop
  endfacet
  facet normal 0 0 1
    outer loop
      vertex 3 6 1
      vertex 3.5 6 1
      vertex 4 9.25 1
    endloop
  endfacet
endsolid OpenSCAD_Model
