solid OpenSCAD_Model
  facet normal -2.22045e-16 0 -1
    outer loop
      vertex 0 0 0
      vertex -30 0 6.66134e-15
      vertex -5 3.75 1.11022e-15
    endloop
  endfacet
  facet normal -2.22045e-16 0 -1
    outer loop
      vertex 0 0 0
      vertex -5 3.75 1.11022e-15
      vertex 0 11 0
    endloop
  endfacet
  facet normal -2.22045e-16 0 -1
    outer loop
      vertex -30 7.25 6.66134e-15
      vertex 0 11 0
      vertex -5 7.25 1.11022e-15
    endloop
  endfacet
  facet normal -2.22045e-16 0 -1
    outer loop
      vertex -5 3.75 1.11022e-15
      vertex -5 7.25 1.11022e-15
      vertex 0 11 0
    endloop
  endfacet
  facet normal -2.22045e-16 0 -1
    outer loop
      vertex 0 11 0
      vertex -30 7.25 6.66134e-15
      vertex -30 11 6.66134e-15
    endloop
  endfacet
  facet normal -2.22045e-16 0 -1
    outer loop
      vertex -5 3.75 1.11022e-15
      vertex -30 0 6.66134e-15
      vertex -30 3.75 6.66134e-15
    endloop
  endfacet
  facet normal 0 -1 0
    outer loop
      vertex -2 0 1.5
      vertex 0 0 0
      vertex 1.86187e-15 0 10.5
    endloop
  endfacet
  facet normal 0 -1 0
    outer loop
      vertex -2 0 1.5
      vertex -30 0 1.5
      vertex -30 0 6.66134e-15
    endloop
  endfacet
  facet normal 0 -1 0
    outer loop
      vertex -30 0 6.66134e-15
      vertex 0 0 0
      vertex -2 0 1.5
    endloop
  endfacet
  facet normal 0 -1 0
    outer loop
      vertex -2 0 10.5
      vertex -2 0 1.5
      vertex 1.86187e-15 0 10.5
    endloop
  endfacet
  facet normal 1 0 -1.77321e-16
    outer loop
      vertex 7.09285e-16 1.75 4
      vertex 0 0 0
      vertex 0 11 0
    endloop
  endfacet
  facet normal 1 0 -1.77321e-16
    outer loop
      vertex 7.09285e-16 1.75 4
      vertex 1.86187e-15 1.75 10.5
      vertex 1.86187e-15 0 10.5
    endloop
  endfacet
  facet normal 1 0 -1.77321e-16
    outer loop
      vertex 1.86187e-15 11 10.5
      vertex 1.86187e-15 9.25 10.5
      vertex 0 11 0
    endloop
  endfacet
  facet normal 1 0 -1.77321e-16
    outer loop
      vertex 1.86187e-15 9.25 10.5
      vertex 7.09285e-16 9.25 4
      vertex 0 11 0
    endloop
  endfacet
  facet normal 1 0 -1.77321e-16
    outer loop
      vertex 1.86187e-15 0 10.5
      vertex 0 0 0
      vertex 7.09285e-16 1.75 4
    endloop
  endfacet
  facet normal 1 0 -1.77321e-16
    outer loop
      vertex 7.09285e-16 9.25 4
      vertex 7.09285e-16 1.75 4
      vertex 0 11 0
    endloop
  endfacet
  facet normal 0 1 0
    outer loop
      vertex -2 11 10.5
      vertex 1.86187e-15 11 10.5
      vertex -2 11 1.5
    endloop
  endfacet
  facet normal 0 1 0
    outer loop
      vertex 0 11 0
      vertex -30 11 6.66134e-15
      vertex -2 11 1.5
    endloop
  endfacet
  facet normal 0 1 0
    outer loop
      vertex 0 11 0
      vertex -2 11 1.5
      vertex 1.86187e-15 11 10.5
    endloop
  endfacet
  facet normal 0 1 0
    outer loop
      vertex -2 11 1.5
      vertex -30 11 6.66134e-15
      vertex -30 11 1.5
    endloop
  endfacet
  facet normal -1 0 1.77321e-16
    outer loop
      vertex -30 7.25 6.66134e-15
      vertex -30 7.25 1.5
      vertex -30 11 6.66134e-15
    endloop
  endfacet
  facet normal -1 0 1.77321e-16
    outer loop
      vertex -30 11 6.66134e-15
      vertex -30 7.25 1.5
      vertex -30 11 1.5
    endloop
  endfacet
  facet normal 0 -1 0
    outer loop
      vertex -5 7.25 1.5
      vertex -30 7.25 1.5
      vertex -30 7.25 6.66134e-15
    endloop
  endfacet
  facet normal 0 -1 0
    outer loop
      vertex -5 7.25 1.11022e-15
      vertex -5 7.25 1.5
      vertex -30 7.25 6.66134e-15
    endloop
  endfacet
  facet normal -1 0 1.77321e-16
    outer loop
      vertex -5 7.25 1.5
      vertex -5 7.25 1.11022e-15
      vertex -5 3.75 1.5
    endloop
  endfacet
  facet normal -1 0 1.77321e-16
    outer loop
      vertex -5 3.75 1.5
      vertex -5 7.25 1.11022e-15
      vertex -5 3.75 1.11022e-15
    endloop
  endfacet
  facet normal 0 1 0
    outer loop
      vertex -30 3.75 1.5
      vertex -5 3.75 1.5
      vertex -30 3.75 6.66134e-15
    endloop
  endfacet
  facet normal 0 1 0
    outer loop
      vertex -30 3.75 6.66134e-15
      vertex -5 3.75 1.5
      vertex -5 3.75 1.11022e-15
    endloop
  endfacet
  facet normal -1 0 1.77321e-16
    outer loop
      vertex -30 0 6.66134e-15
      vertex -30 0 1.5
      vertex -30 3.75 6.66134e-15
    endloop
  endfacet
  facet normal -1 0 1.77321e-16
    outer loop
      vertex -30 3.75 6.66134e-15
      vertex -30 0 1.5
      vertex -30 3.75 1.5
    endloop
  endfacet
  facet normal 2.22045e-16 0 1
    outer loop
      vertex -5 7.25 1.5
      vertex -2 0 1.5
      vertex -2 11 1.5
    endloop
  endfacet
  facet normal 2.22045e-16 0 1
    outer loop
      vertex -5 3.75 1.5
      vertex -30 3.75 1.5
      vertex -30 0 1.5
    endloop
  endfacet
  facet normal 2.22045e-16 0 1
    outer loop
      vertex -30 11 1.5
      vertex -30 7.25 1.5
      vertex -2 11 1.5
    endloop
  endfacet
  facet normal 2.22045e-16 0 1
    outer loop
      vertex -5 3.75 1.5
      vertex -2 0 1.5
      vertex -5 7.25 1.5
    endloop
  endfacet
  facet normal 2.22045e-16 0 1
    outer loop
      vertex -30 0 1.5
      vertex -2 0 1.5
      vertex -5 3.75 1.5
    endloop
  endfacet
  facet normal 2.22045e-16 0 1
    outer loop
      vertex -30 7.25 1.5
      vertex -5 7.25 1.5
      vertex -2 11 1.5
    endloop
  endfacet
  facet normal -1 0 1.77321e-16
    outer loop
      vertex -2 0 1.5
      vertex -2 0 10.5
      vertex -2 1.75 3
    endloop
  endfacet
  facet normal -1 0 1.77321e-16
    outer loop
      vertex -2 0 1.5
      vertex -2 1.75 3
      vertex -2 11 1.5
    endloop
  endfacet
  facet normal -1 0 1.77321e-16
    outer loop
      vertex -2 6 3
      vertex -2 5 3.5
      vertex -2 6 3.5
    endloop
  endfacet
  facet normal -1 0 1.77321e-16
    outer loop
      vertex -2 1.75 3
      vertex -2 5 3
      vertex -2 11 1.5
    endloop
  endfacet
  facet normal -1 0 1.77321e-16
    outer loop
      vertex -2 9.25 3
      vertex -2 11 1.5
      vertex -2 6 3
    endloop
  endfacet
  facet normal -1 0 1.77321e-16
    outer loop
      vertex -2 5 3
      vertex -2 5 3.5
      vertex -2 6 3
    endloop
  endfacet
  facet normal -1 0 1.77321e-16
    outer loop
      vertex -2 5 3
      vertex -2 6 3
      vertex -2 11 1.5
    endloop
  endfacet
  facet normal -1 0 1.77321e-16
    outer loop
      vertex -2 11 1.5
      vertex -2 9.25 10.5
      vertex -2 11 10.5
    endloop
  endfacet
  facet normal -1 0 1.77321e-16
    outer loop
      vertex -2 1.75 3
      vertex -2 0 10.5
      vertex -2 1.75 10.5
    endloop
  endfacet
  facet normal -1 0 1.77321e-16
    outer loop
      vertex -2 9.25 10.5
      vertex -2 11 1.5
      vertex -2 9.25 3
    endloop
  endfacet
  facet normal 2.22045e-16 0 1
    outer loop
      vertex -2 0 10.5
      vertex 1.86187e-15 0 10.5
      vertex 1.86187e-15 1.75 10.5
    endloop
  endfacet
  facet normal 2.22045e-16 0 1
    outer loop
      vertex -2 1.75 10.5
      vertex -2 0 10.5
      vertex 1.86187e-15 1.75 10.5
    endloop
  endfacet
  facet normal 0 1 0
    outer loop
      vertex -2 1.75 10.5
      vertex 1.86187e-15 1.75 10.5
      vertex -2 1.75 3
    endloop
  endfacet
  facet normal 0 1 0
    outer loop
      vertex -1 1.75 4
      vertex 1.86187e-15 1.75 10.5
      vertex 7.09285e-16 1.75 4
    endloop
  endfacet
  facet normal 0 1 0
    outer loop
      vertex -2 1.75 3
      vertex 1.86187e-15 1.75 10.5
      vertex -1 1.75 4
    endloop
  endfacet
  facet normal 0 1 0
    outer loop
      vertex -1 1.75 3
      vertex -2 1.75 3
      vertex -1 1.75 4
    endloop
  endfacet
  facet normal 2.22045e-16 0 1
    outer loop
      vertex -1 1.75 4
      vertex 7.09285e-16 1.75 4
      vertex 7.09285e-16 9.25 4
    endloop
  endfacet
  facet normal 2.22045e-16 0 1
    outer loop
      vertex -1 9.25 4
      vertex -1 1.75 4
      vertex 7.09285e-16 9.25 4
    endloop
  endfacet
  facet normal 0 -1 0
    outer loop
      vertex -1 9.25 4
      vertex 7.09285e-16 9.25 4
      vertex 1.86187e-15 9.25 10.5
    endloop
  endfacet
  facet normal 0 -1 0
    outer loop
      vertex -2 9.25 3
      vertex -1 9.25 4
      vertex -2 9.25 10.5
    endloop
  endfacet
  facet normal 0 -1 0
    outer loop
      vertex -2 9.25 10.5
      vertex -1 9.25 4
      vertex 1.86187e-15 9.25 10.5
    endloop
  endfacet
  facet normal 0 -1 0
    outer loop
      vertex -1 9.25 3
      vertex -1 9.25 4
      vertex -2 9.25 3
    endloop
  endfacet
  facet normal 2.22045e-16 0 1
    outer loop
      vertex -2 9.25 10.5
      vertex 1.86187e-15 9.25 10.5
      vertex 1.86187e-15 11 10.5
    endloop
  endfacet
  facet normal 2.22045e-16 0 1
    outer loop
      vertex -2 11 10.5
      vertex -2 9.25 10.5
      vertex 1.86187e-15 11 10.5
    endloop
  endfacet
  facet normal 2.22045e-16 0 1
    outer loop
      vertex -1 9.25 3
      vertex -2 9.25 3
      vertex -2 6 3
    endloop
  endfacet
  facet normal 2.22045e-16 0 1
    outer loop
      vertex -1 6 3
      vertex -1 9.25 3
      vertex -2 6 3
    endloop
  endfacet
  facet normal 0 1 0
    outer loop
      vertex -1 6 3
      vertex -2 6 3
      vertex -1 6 3.5
    endloop
  endfacet
  facet normal 0 1 0
    outer loop
      vertex -1 6 3.5
      vertex -2 6 3
      vertex -2 6 3.5
    endloop
  endfacet
  facet normal 2.22045e-16 0 1
    outer loop
      vertex -2 5 3.5
      vertex -1 5 3.5
      vertex -1 6 3.5
    endloop
  endfacet
  facet normal 2.22045e-16 0 1
    outer loop
      vertex -2 6 3.5
      vertex -2 5 3.5
      vertex -1 6 3.5
    endloop
  endfacet
  facet normal 0 -1 0
    outer loop
      vertex -2 5 3
      vertex -1 5 3
      vertex -1 5 3.5
    endloop
  endfacet
  facet normal 0 -1 0
    outer loop
      vertex -2 5 3.5
      vertex -2 5 3
      vertex -1 5 3.5
    endloop
  endfacet
  facet normal 2.22045e-16 0 1
    outer loop
      vertex -1 5 3
      vertex -2 5 3
      vertex -2 1.75 3
    endloop
  endfacet
  facet normal 2.22045e-16 0 1
    outer loop
      vertex -1 1.75 3
      vertex -1 5 3
      vertex -2 1.75 3
    endloop
  endfacet
  facet normal -1 0 1.77321e-16
    outer loop
      vertex -1 1.75 3
      vertex -1 1.75 4
      vertex -1 5 3
    endloop
  endfacet
  facet normal -1 0 1.77321e-16
    outer loop
      vertex -1 6 3.5
      vertex -1 1.75 4
      vertex -1 9.25 4
    endloop
  endfacet
  facet normal -1 0 1.77321e-16
    outer loop
      vertex -1 6 3
      vertex -1 9.25 4
      vertex -1 9.25 3
    endloop
  endfacet
  facet normal -1 0 1.77321e-16
    outer loop
      vertex -1 5 3.5
      vertex -1 1.75 4
      vertex -1 6 3.5
    endloop
  endfacet
  facet normal -1 0 1.77321e-16
    outer loop
      vertex -1 5 3
      vertex -1 1.75 4
      vertex -1 5 3.5
    endloop
  endfacet
  facet normal -1 0 1.77321e-16
    outer loop
      vertex -1 6 3.5
      vertex -1 9.25 4
      vertex -1 6 3
    endloop
  endfacet
endsolid OpenSCAD_Model
